<svg xmlns="http://www.w3.org/2000/svg" viewBox="0 0 20 24" width="20" height="24">
	<style>
		tspan { white-space:pre }
		.shp0 { fill: #5774b8 } 
	</style>
	<path id="Shape 1 copy 2" class="shp0" d="M17.26 15.06C16.85 14.5 16.32 14.16 15.72 14.08C15.13 14.01 14.53 14.2 13.99 14.65L12.28 16.02C12.17 15.94 12.05 15.85 11.94 15.78C11.77 15.66 11.62 15.56 11.49 15.45C10.18 14.33 9.03 12.94 7.98 11.21C7.47 10.35 7.14 9.63 6.93 8.92C7.37 8.6 7.78 8.26 8.18 7.92C8.33 7.8 8.48 7.67 8.63 7.55C9.77 6.63 9.93 5.28 9.04 4.11L7.89 2.57C7.76 2.4 7.63 2.23 7.5 2.05C7.25 1.7 6.98 1.34 6.71 1C6.3 0.46 5.77 0.14 5.18 0.06C4.6 -0.01 4 0.17 3.46 0.59C3.45 0.59 3.45 0.59 3.45 0.6L1.61 2.1C0.92 2.66 0.48 3.39 0.29 4.28C0.01 5.73 0.26 7.13 0.47 8.06C0.99 10.34 1.92 12.5 3.4 14.89C5.19 17.77 7.48 20.15 10.21 21.97C11.25 22.65 12.65 23.48 14.29 23.8C14.39 23.82 14.49 23.84 14.59 23.85C15.7 23.99 16.68 23.7 17.51 22.97C17.51 22.96 17.52 22.95 17.53 22.94C17.82 22.66 18.14 22.41 18.48 22.15C18.71 21.97 18.95 21.78 19.18 21.59C19.72 21.13 20.04 20.57 20.11 19.95C20.18 19.33 20 18.71 19.57 18.15L17.26 15.06ZM18.36 20.53C18.35 20.53 18.35 20.54 18.36 20.53C18.14 20.72 17.93 20.89 17.7 21.07C17.35 21.34 16.99 21.62 16.65 21.95C16.1 22.42 15.5 22.6 14.75 22.51C14.68 22.5 14.6 22.49 14.53 22.48C13.11 22.2 11.85 21.45 10.92 20.83C8.36 19.12 6.2 16.88 4.5 14.17C3.11 11.91 2.23 9.88 1.75 7.75C1.45 6.45 1.4 5.46 1.58 4.56C1.7 3.98 1.97 3.53 2.42 3.16L4.26 1.67C4.52 1.47 4.79 1.38 5.03 1.41C5.34 1.45 5.56 1.67 5.69 1.85C5.7 1.86 5.7 1.86 5.71 1.87C5.97 2.19 6.21 2.52 6.47 2.87C6.6 3.05 6.73 3.23 6.86 3.42L8.02 4.94C8.46 5.53 8.41 6.02 7.83 6.48C7.68 6.61 7.53 6.74 7.37 6.86C6.91 7.24 6.48 7.59 6.02 7.92C6.01 7.93 6 7.93 5.99 7.94C5.53 8.32 5.55 8.75 5.61 9.04C5.61 9.06 5.61 9.08 5.62 9.09C5.86 9.99 6.24 10.86 6.86 11.91L6.86 11.92C7.99 13.79 9.23 15.29 10.66 16.49C10.84 16.65 11.03 16.78 11.21 16.9C11.37 17.01 11.52 17.12 11.65 17.23C11.67 17.24 11.69 17.26 11.71 17.27C11.86 17.38 12.01 17.43 12.17 17.45C12.57 17.51 12.85 17.28 12.94 17.2L14.78 15.71C14.97 15.56 15.25 15.39 15.56 15.42C15.85 15.46 16.08 15.69 16.2 15.88C16.21 15.88 16.21 15.88 16.21 15.89L18.54 18.97C18.97 19.55 18.91 20.07 18.36 20.53Z" />
</svg>