<svg xmlns="http://www.w3.org/2000/svg" viewBox="0 0 19 23" width="19" height="23">
	<style>
		tspan { white-space:pre }
		.shp0 { fill: #5774b8 } 
	</style>
	<path id="Shape 1 copy" class="shp0" d="M9.02 12.39C9.04 12.39 9.06 12.39 9.09 12.39C9.1 12.39 9.11 12.39 9.11 12.39C9.13 12.39 9.15 12.39 9.16 12.39C10.46 12.36 11.51 11.87 12.29 10.93C14 8.86 13.71 5.32 13.68 4.98C13.57 2.44 12.45 1.23 11.53 0.66C10.84 0.24 10.04 0.01 9.14 -0.01L9.11 -0.01C9.11 -0.01 9.1 -0.01 9.09 -0.01L9.07 -0.01C8.57 -0.01 7.61 0.08 6.68 0.64C5.74 1.21 4.61 2.43 4.5 4.98C4.47 5.32 4.18 8.86 5.89 10.93C6.66 11.87 7.72 12.36 9.02 12.39ZM5.68 5.1C5.68 5.09 5.69 5.07 5.69 5.06C5.83 1.65 8.09 1.28 9.06 1.28L9.08 1.28C9.09 1.28 9.1 1.28 9.11 1.28C10.31 1.31 12.35 1.83 12.49 5.06C12.49 5.08 12.49 5.09 12.49 5.1C12.5 5.13 12.81 8.37 11.4 10.08C10.84 10.75 10.09 11.09 9.11 11.1C9.1 11.1 9.1 11.1 9.09 11.1L9.09 11.1C9.08 11.1 9.07 11.1 9.07 11.1C8.09 11.09 7.34 10.75 6.78 10.08C5.38 8.38 5.68 5.13 5.68 5.1ZM18.21 18.26C18.21 18.26 18.21 18.25 18.21 18.25C18.21 18.21 18.21 18.17 18.21 18.13C18.18 17.18 18.12 14.98 16.2 14.28C16.18 14.27 16.17 14.27 16.15 14.26C14.15 13.71 12.48 12.48 12.47 12.46C12.2 12.26 11.82 12.32 11.63 12.62C11.44 12.91 11.51 13.31 11.78 13.51C11.85 13.57 13.62 14.89 15.83 15.5C16.87 15.9 16.98 17.08 17.01 18.17C17.01 18.21 17.01 18.25 17.02 18.29C17.02 18.71 17 19.38 16.93 19.76C16.21 20.2 13.39 21.71 9.1 21.71C4.82 21.71 1.99 20.19 1.26 19.75C1.19 19.37 1.16 18.71 1.17 18.28C1.17 18.24 1.17 18.21 1.17 18.16C1.21 17.08 1.32 15.89 2.36 15.49C4.57 14.88 6.33 13.56 6.41 13.51C6.68 13.3 6.75 12.9 6.56 12.61C6.37 12.32 5.99 12.25 5.72 12.46C5.7 12.47 4.05 13.71 2.04 14.26C2.02 14.26 2.01 14.27 1.99 14.27C0.07 14.98 0.01 17.18 -0.02 18.12C-0.02 18.17 -0.02 18.21 -0.02 18.24C-0.02 18.25 -0.02 18.25 -0.02 18.26C-0.03 18.5 -0.03 19.77 0.2 20.41C0.25 20.54 0.33 20.64 0.43 20.71C0.57 20.81 3.76 22.99 9.1 22.99C14.44 22.99 17.64 20.8 17.77 20.71C17.87 20.64 17.96 20.54 18 20.41C18.22 19.78 18.22 18.51 18.21 18.26Z" />
</svg>